<?xml version="1.0" standalone="no"?>
<!DOCTYPE svg PUBLIC "-//W3C//DTD SVG 20010904//EN"
 "http://www.w3.org/TR/2001/REC-SVG-20010904/DTD/svg10.dtd">
<svg version="1.0" xmlns="http://www.w3.org/2000/svg"
 width="512.000000pt" height="512.000000pt" viewBox="0 0 512.000000 512.000000"
 preserveAspectRatio="xMidYMid meet">

<g transform="translate(0.000000,512.000000) scale(0.100000,-0.100000)"
fill="#000000" stroke="none">
<path d="M855 5015 l-25 -24 0 -365 0 -365 -395 -276 c-217 -153 -404 -288
-415 -302 -20 -25 -20 -41 -20 -1115 0 -809 3 -1095 12 -1111 24 -47 23 -46
431 -47 l387 0 0 -638 0 -639 23 -21 23 -22 1685 0 1686 0 21 23 22 23 0 637
0 637 388 0 c407 1 406 0 430 47 9 16 12 302 12 1111 0 1074 0 1090 -20 1115
-11 14 -198 149 -415 302 l-395 276 0 365 0 365 -25 24 -24 25 -1681 0 -1681
0 -24 -25z m3275 -715 l0 -580 -125 0 -125 0 0 180 c0 179 0 181 -25 205 l-24
25 -1271 0 -1271 0 -24 -25 c-25 -24 -25 -26 -25 -205 l0 -180 -125 0 -125 0
0 580 0 580 1570 0 1570 0 0 -580z m-3300 -415 l0 -165 -242 0 c-133 0 -239 2
-236 5 14 14 464 325 471 325 4 0 7 -74 7 -165z m3705 5 c121 -84 224 -157
229 -161 6 -5 -98 -9 -232 -9 l-242 0 0 166 c0 129 3 165 13 161 6 -2 111 -73
232 -157z m-817 -47 l3 -123 -1161 0 -1160 0 0 118 c0 65 3 122 7 125 3 4 524
6 1157 5 l1151 -3 3 -122z m1232 -1278 l0 -985 -2390 0 -2390 0 0 985 0 985
2390 0 2390 0 0 -985z m-3710 -1334 c0 -165 2 -180 21 -205 l20 -26 1279 0
1279 0 20 26 c19 25 21 40 21 205 l0 179 125 0 125 0 0 -580 0 -580 -1570 0
-1570 0 0 580 0 580 125 0 125 0 0 -179z m2478 52 l3 -123 -1161 0 -1160 0 0
118 c0 65 3 122 7 125 3 4 524 6 1157 5 l1151 -3 3 -122z"/>
<path d="M1900 4545 l0 -85 660 0 660 0 0 85 0 85 -660 0 -660 0 0 -85z"/>
<path d="M1650 4300 l0 -80 910 0 910 0 0 80 0 80 -910 0 -910 0 0 -80z"/>
<path d="M1285 3298 c-52 -28 -62 -92 -20 -133 23 -24 29 -25 165 -25 l140 0
0 -575 0 -575 -131 0 c-131 0 -161 -6 -186 -39 -21 -27 -15 -79 12 -106 l24
-25 358 0 c313 0 361 2 381 16 32 22 43 57 31 94 -18 50 -51 60 -194 60 l-125
0 0 575 0 575 134 0 c127 0 136 1 162 24 21 18 28 32 28 61 0 29 -7 43 -28 61
l-27 24 -352 0 c-235 -1 -359 -4 -372 -12z"/>
<path d="M2173 3286 l-28 -24 0 -697 0 -697 28 -24 c52 -45 118 -24 137 44 6
23 10 213 10 497 l1 460 85 -168 c74 -147 89 -170 119 -184 33 -16 37 -16 70
0 30 14 45 37 119 184 l85 168 1 -460 c0 -284 4 -474 10 -497 19 -68 85 -89
137 -44 l28 24 3 676 c2 577 0 680 -12 711 -19 44 -54 61 -98 49 -31 -8 -41
-25 -168 -276 -74 -148 -137 -268 -140 -268 -3 0 -64 117 -135 261 -72 144
-139 267 -150 275 -29 21 -70 17 -102 -10z"/>
<path d="M3240 3301 c-76 -23 -147 -89 -171 -157 -11 -31 -14 -148 -14 -584 0
-532 1 -546 21 -590 23 -51 71 -102 118 -128 26 -14 66 -17 258 -20 215 -3
229 -2 277 19 61 26 126 95 141 148 6 20 10 160 10 321 -1 299 -1 304 -47 328
-27 15 -360 16 -398 2 -34 -13 -59 -69 -46 -104 19 -48 44 -56 188 -56 l133 0
0 -224 0 -225 -26 -20 c-25 -20 -40 -21 -218 -21 -178 0 -194 1 -214 20 -11
11 -24 35 -27 52 -3 18 -5 257 -3 531 l3 499 29 24 c28 25 29 25 222 22 170
-3 196 -5 211 -21 15 -14 19 -41 24 -139 5 -116 6 -122 33 -144 36 -31 80 -31
111 1 24 23 25 29 25 152 0 143 -14 190 -73 251 -59 61 -111 72 -340 71 -111
0 -213 -4 -227 -8z"/>
<path d="M1650 830 l0 -80 910 0 910 0 0 80 0 80 -910 0 -910 0 0 -80z"/>
<path d="M1900 580 l0 -80 660 0 660 0 0 80 0 80 -660 0 -660 0 0 -80z"/>
</g>
</svg>
